Coordinates
version=1
nRows=4
nColumns=107
inDegrees=yes

Units are S.I. units (second, meters, Newtons, ...)
If the header above contains a line with 'inDegrees', this indicates whether rotational values are in degrees (yes) or radians (no).

endheader
time	sternoclavicular_r2	sternoclavicular_r3	unrotscap_r3	unrotscap_r2	acromioclavicular_r2	acromioclavicular_r3	acromioclavicular_r1	unrothum_r1	unrothum_r3	unrothum_r2	elv_angle	shoulder_elv	shoulder1_r2	shoulder_rot	elbow_flexion	pro_sup	deviation	flexion	proximal_distal_r1	proximal_distal_r3	cmc_flexion	cmc_abduction	mp_flexion	ip_flexion	mcp2_flexion	mcp2_abduction	pm2_flexion	md2_flexion	mcp3_flexion	mcp3_abduction	pm3_flexion	md3_flexion	mcp4_flexion	mcp4_abduction	pm4_flexion	md4_flexion	mcp5_flexion	mcp5_abduction	pm5_flexion	md5_flexion	bicpt_tx	bicpt_ty	bicpt_tz	bicpt2_tx	bicpt2_ty	bicpt2_tz	ptpt_tx	ptpt_ty	ptpt_tz	FCUpt_tx	FCUpt_ty	FCUpt_tz	EDCpt_tx	EDCpt_ty	EDCpt_tz	APLpt_tx	APLpt_ty	APLpt_tz	FPLpt_tx	FPLpt_ty	FPLpt_tz	FPLpt2_tx	FPLpt2_ty	FPLpt2_tz	PEC1pt2_tx	PEC1pt2_ty	PEC1pt2_tz	PEC1pt3_tx	PEC1pt3_ty	PEC1pt3_tz	PEC2pt2_tx	PEC2pt2_ty	PEC2pt2_tz	PEC2pt3_tx	PEC2pt3_ty	PEC2pt3_tz	PEC3pt2_tx	PEC3pt2_ty	PEC3pt2_tz	PEC3pt3_tx	PEC3pt3_ty	PEC3pt3_tz	DELT2pt2a_tx	DELT2pt2a_ty	DELT2pt2a_tz	DELT2pt2_tx	DELT2pt2_ty	DELT2pt2_tz	LAT1pt2_tx	LAT1pt2_ty	LAT1pt2_tz	LAT1pt3_tx	LAT1pt3_ty	LAT1pt3_tz	LAT2pt2_tx	LAT2pt2_ty	LAT2pt2_tz	LAT2pt3_tx	LAT2pt3_ty	LAT2pt3_tz	LAT3pt2_tx	LAT3pt2_ty	LAT3pt2_tz	LAT3pt3_tx	LAT3pt3_ty	LAT3pt3_tz
      0.63333333	     -0.31000230	      0.13130234	     -0.13130234	      0.31000230	     -0.06276916	      0.50727827	      0.22801809	     -0.22801809	     -0.50727827	      0.06276916	    103.03973500	     73.39580055	     -1.79838264	    -43.05367550	     30.67935595	     81.73667820	      0.34226293	     -0.52678834	      0.36861654	     -0.26339417	     41.81537001	     -2.42269973	     15.30975467	      9.29742955	     99.27007805	     11.53373326	     83.40938750	     80.66243599	     99.26732196	      0.70477415	     83.30438229	     51.42722945	     96.49290607	    -13.16087335	     93.55452972	     39.64535242	     95.19878384	    -14.16028143	     91.76521702	      5.57385585	      0.00091478	     -0.03111632	     -0.00486639	      0.01465983	     -0.01853420	     -0.00179339	      0.00151058	     -0.06880519	     -0.00663433	      0.01225105	     -0.18237953	     -0.00002679	     -0.00980838	      0.00334686	     -0.00062525	      0.00030658	      0.00012263	      0.00061316	      0.00039242	      0.00117727	      0.00066221	     -0.00000771	     -0.00007398	     -0.00008878	      0.00240575	      0.00844052	      0.00587167	     -0.00786967	      0.01900137	     -0.01802276	      0.00240575	      0.00844052	      0.00587167	      0.00053008	      0.01761501	     -0.00925603	      0.00384163	      0.00469367	      0.01570192	      0.00000000	      0.00720079	      0.00000000	     -0.00689106	     -0.03184565	     -0.00593393	      0.02352516	     -0.00122287	     -0.01475590	     -0.00085629	      0.01435297	     -0.00587167	      0.00236498	      0.02071394	     -0.01712570	     -0.00574934	      0.01243652	     -0.00526004	     -0.01198799	      0.02625941	     -0.02939912	     -0.02250806	      0.01390444	     -0.00705416	     -0.01492383	      0.03033696	     -0.03673871
      0.66666667	     -0.30972141	      0.13118337	     -0.13118337	      0.30972141	     -0.06271228	      0.50681862	      0.22781148	     -0.22781148	     -0.50681862	      0.06271228	    103.14064286	     73.32929598	     -1.80014381	    -43.48514416	     30.71221207	     81.96940354	      0.33789689	     -0.53416012	      0.36512161	     -0.26708006	     41.82201361	     -2.17641011	     15.36176046	      9.25056033	     99.23808940	     11.55978846	     83.42232948	     80.17771717	     99.20051184	      0.70547558	     83.33923294	     51.17036499	     96.42773642	    -13.15171779	     93.64608479	     39.49665265	     95.04380289	    -14.15918046	     92.04411884	      5.56666564	      0.00091586	     -0.03112009	     -0.00486699	      0.01463796	     -0.01854312	     -0.00175488	      0.00149339	     -0.06881631	     -0.00665308	      0.01227749	     -0.18237192	     -0.00002110	     -0.00983631	      0.00335934	     -0.00063220	      0.00030757	      0.00012303	      0.00061515	      0.00039369	      0.00118108	      0.00066436	     -0.00000770	     -0.00007384	     -0.00008861	      0.00240357	      0.00843288	      0.00586635	     -0.00786254	      0.01898416	     -0.01800643	      0.00240357	      0.00843288	      0.00586635	      0.00052960	      0.01759905	     -0.00924765	      0.00383904	      0.00468942	      0.01569532	      0.00000000	      0.00718767	      0.00000000	     -0.00688481	     -0.03181679	     -0.00592303	      0.02363980	     -0.00123881	     -0.01502181	     -0.00085551	      0.01433996	     -0.00586635	      0.00236283	      0.02069517	     -0.01711018	     -0.00574413	      0.01242525	     -0.00525527	     -0.01197713	      0.02623561	     -0.02937248	     -0.02248767	      0.01389184	     -0.00704777	     -0.01491030	      0.03030947	     -0.03670542
      0.70000000	     -0.31351314	      0.13278937	     -0.13278937	      0.31351314	     -0.06348003	      0.51302330	      0.23060044	     -0.23060044	     -0.51302330	      0.06348003	    101.97368749	     74.22702283	     -1.77977660	    -38.20938876	     29.95881820	     77.14786097	      0.36160844	     -0.52917302	      0.38372523	     -0.26458651	     41.78362366	     -2.02974430	     14.67452050	      9.95986008	     99.44893411	     11.40914458	     83.21094535	     79.05732429	     99.58179052	      0.35126447	     83.16983564	     50.60914894	     97.35128748	    -13.23706241	     93.11182846	     39.48275224	     96.18046086	    -14.16967290	     91.17792407	      5.59522447	      0.00089094	     -0.03103374	     -0.00485309	      0.01506534	     -0.01833846	     -0.00253704	      0.00184964	     -0.06858594	     -0.00626467	      0.01173319	     -0.18252638	     -0.00013052	     -0.00925772	      0.00310433	     -0.00049420	      0.00030692	      0.00012277	      0.00061384	      0.00039286	      0.00117857	      0.00066295	     -0.00000777	     -0.00007466	     -0.00008959	      0.00243300	      0.00853611	      0.00593817	     -0.00795879	      0.01921657	     -0.01822687	      0.00243300	      0.00853611	      0.00593817	      0.00053608	      0.01781450	     -0.00936086	      0.00387381	      0.00474683	      0.01578359	      0.00000000	      0.00736585	      0.00000000	     -0.00696910	     -0.03220631	     -0.00607106	      0.02206725	     -0.00104590	     -0.01187180	     -0.00086598	      0.01451552	     -0.00593817	      0.00239176	      0.02094853	     -0.01731965	     -0.00581446	      0.01257737	     -0.00531961	     -0.01212376	      0.02655680	     -0.02973207	     -0.02276297	      0.01406191	     -0.00713405	     -0.01509284	      0.03068053	     -0.03715478
      0.73333333	     -0.30971457	      0.13118047	     -0.13118047	      0.30971457	     -0.06271090	      0.50680743	      0.22780645	     -0.22780645	     -0.50680743	      0.06271090	    103.14317551	     73.32767705	     -1.80018801	    -43.50330359	     30.71240610	     81.94762442	      0.33852682	     -0.53270661	      0.36562752	     -0.26635330	     41.82090995	     -1.80054848	     15.38596856	      9.41304706	     99.29560863	     11.58011804	     83.41389682	     80.05606347	     99.26855046	      0.70637229	     83.30601701	     51.16823175	     96.45607068	    -13.15368217	     93.54518315	     39.40404587	     94.99768470	    -14.15869072	     92.10311403	      5.56450475	      0.00091587	     -0.03112011	     -0.00486700	      0.01464001	     -0.01854318	     -0.00175849	      0.00149500	     -0.06881527	     -0.00665132	      0.01227501	     -0.18237263	     -0.00002164	     -0.00983369	      0.00335817	     -0.00063155	      0.00030739	      0.00012295	      0.00061477	      0.00039345	      0.00118036	      0.00066396	     -0.00000770	     -0.00007386	     -0.00008863	      0.00240352	      0.00843269	      0.00586622	     -0.00786236	      0.01898374	     -0.01800603	      0.00240352	      0.00843269	      0.00586622	      0.00052959	      0.01759866	     -0.00924744	      0.00383898	      0.00468931	      0.01569516	      0.00000000	      0.00718735	      0.00000000	     -0.00688466	     -0.03181609	     -0.00592276	      0.02364460	     -0.00123948	     -0.01503301	     -0.00085549	      0.01433965	     -0.00586622	      0.00236278	      0.02069472	     -0.01710981	     -0.00574401	      0.01242498	     -0.00525515	     -0.01197686	      0.02623504	     -0.02937183	     -0.02248717	      0.01389153	     -0.00704761	     -0.01490997	      0.03030880	     -0.03670461
